<svg xmlns="http://www.w3.org/2000/svg" xmlns:xlink="http://www.w3.org/1999/xlink" viewBox="0 0 701.242 577.141"><defs><style>.a{fill:#b5e5ff;}.b{fill:url(#a);}.c{fill:url(#b);}.d{fill:url(#c);}.e{fill:url(#d);}.f{fill:url(#e);}.g{fill:url(#f);}.h{fill:url(#g);}.i{fill:url(#h);}.j{fill:url(#i);}.k{fill:url(#j);}.l{fill:url(#k);}.m{fill:url(#l);}.n{fill:url(#m);}.o{fill:url(#n);}.p,.q{fill:#5e5e5e;}.p{font-size:16px;font-family:SegoeUI, Segoe UI;}.r{fill:#e0f1fc;}.s{fill:none;stroke:#5e5e5e;stroke-linecap:round;stroke-linejoin:round;stroke-miterlimit:10;}.t{fill:#8f8f8f;}.u{fill:#fff;opacity:0.5;}.v{fill:#d9d9d9;}.w{fill:#aed948;}.x{fill:#97bd3f;}.y{fill:#3899cf;}</style><linearGradient id="a" x1="0.502" y1="1.674" x2="0.502" y2="0.374" gradientUnits="objectBoundingBox"><stop offset="0" stop-color="#fff"/><stop offset="1" stop-color="#bbdbf0"/></linearGradient><linearGradient id="b" x1="0.501" y1="1.139" x2="0.501" y2="0.248" xlink:href="#a"/><linearGradient id="c" x1="0.501" y1="0.989" x2="0.501" y2="0.216" xlink:href="#a"/><linearGradient id="d" x1="0.496" y1="1.244" x2="0.496" y2="0.273" xlink:href="#a"/><linearGradient id="e" x1="0.501" y1="1.002" x2="0.501" y2="0.219" xlink:href="#a"/><linearGradient id="f" x1="0.498" y1="1.135" x2="0.498" y2="0.248" xlink:href="#a"/><linearGradient id="g" x1="0.498" y1="1.002" x2="0.498" y2="0.22" xlink:href="#a"/><linearGradient id="h" x1="0.497" y1="1.107" x2="0.497" y2="0.243" xlink:href="#a"/><linearGradient id="i" x1="0.499" y1="1.388" x2="0.499" y2="0.301" xlink:href="#a"/><linearGradient id="j" x1="0.503" y1="1.099" x2="0.503" y2="0.242" xlink:href="#a"/><linearGradient id="k" x1="0.5" y1="0.97" x2="0.5" y2="0.212" xlink:href="#a"/><linearGradient id="l" x1="0.5" y1="1.13" x2="0.5" y2="0.245" xlink:href="#a"/><linearGradient id="m" x1="0.502" y1="1.591" x2="0.502" y2="0.345" xlink:href="#a"/><linearGradient id="n" x1="0.5" y1="0.812" x2="0.5" y2="0.982" xlink:href="#a"/></defs><g transform="translate(-609 -223)"><g transform="translate(634.395 223)"><g transform="translate(45.04)"><path class="a" d="M570.271,0H41.525A8.589,8.589,0,0,0,32.9,8.625V61.092h546V8.625A8.589,8.589,0,0,0,570.271,0Z" transform="translate(-24.515)"/><g transform="translate(0 267.128)"><path class="b" d="M66.295,249.257,29.4,237.757c15.333-48.634,8.864-121.705,8.625-122.663L76.357,111.5C76.836,114.854,83.784,193.2,66.295,249.257Z" transform="translate(-29.4 -111.5)"/><g transform="translate(44.801 1.677)"><path class="c" d="M86.432,313.205,48.1,308.893c4.792-42.884,5.031-71.154,5.51-155.006,0-12.458.24-26.353.24-41.686l38.572.24c0,15.333-.24,28.989-.24,41.447C91.7,239.655,91.7,268.4,86.432,313.205Z" transform="translate(-48.1 -112.2)"/></g><g transform="translate(90.793 1.437)"><path class="d" d="M75.21,343.771C62.992,286.273,68.5,119.048,68.742,112.1l38.572,1.2c0,1.677-5.51,169.621,5.75,222.327Z" transform="translate(-67.297 -112.1)"/></g><g transform="translate(134.403 1.198)"><path class="e" d="M123.832,296.474,85.5,293.12c4.312-50.311,0-178.485,0-179.683L124.072,112C124.072,117.51,128.145,244.007,123.832,296.474Z" transform="translate(-85.5 -112)"/></g><g transform="translate(175.449 1.437)"><path class="f" d="M115.252,340.9C99.2,280.283,103.033,119.048,103.033,112.1l38.572.958c0,1.677-3.833,162.673,10.781,217.776Z" transform="translate(-102.633 -112.1)"/></g><g transform="translate(216.841 1.437)"><path class="g" d="M124.917,314.063c-7.666-53.9-4.312-195.734-4.073-201.963l38.572.958c0,1.437-3.354,144.7,3.833,195.495Z" transform="translate(-119.91 -112.1)"/></g><g transform="translate(250.837 1.198)"><path class="h" d="M171.234,341.036,134.1,330.973c11.26-41.686,10.062-171.3,8.864-217.776l38.572-1.2C181.536,119.187,186.328,285.454,171.234,341.036Z" transform="translate(-134.1 -112)"/></g><g transform="translate(299.557 1.198)"><path class="i" d="M159.86,319.234c-9.344-57.978-3.833-201.245-3.594-207.234l38.572,1.437c0,1.437-5.51,145.423,3.354,199.807Z" transform="translate(-154.436 -112)"/></g><g transform="translate(343.074 1.917)"><rect class="j" width="38.572" height="164.829"/></g><g transform="translate(379.011 0.958)"><path class="k" d="M225.214,320.811l-37.614-9.1c11.979-50.311,5.75-196.693,5.51-198.13l38.572-1.677C232.161,118.129,238.63,265.229,225.214,320.811Z" transform="translate(-187.6 -111.9)"/></g><g transform="translate(425.897 1.437)"><path class="l" d="M229.043,348.323c-26.593-53.665-21.8-217.776-21.083-236.223l38.572,1.437c-1.677,47.676-1.677,179.683,17.01,217.776Z" transform="translate(-207.171 -112.1)"/></g><g transform="translate(468.373 1.917)"><path class="m" d="M236.4,314.743c-11.26-57.5-11.5-196.453-11.5-202.443h38.572c0,1.437.24,141.111,10.781,195.016Z" transform="translate(-224.9 -112.3)"/></g><g transform="translate(510.06 1.917)"><path class="n" d="M255.237,256.046C242.54,210.527,242.3,116.133,242.3,112.3h38.572c0,.958.24,93.2,11.5,133.444Z" transform="translate(-242.3 -112.3)"/></g></g><path class="o" d="M243.488,37.96c-4.792,0-10.062-3.594-11.739-7.906l-7.427-18.447C222.645,7.294,217.374,3.7,212.583,3.7H77.94c-4.792,0-10.062,3.594-11.739,7.906L58.774,30.053C57.1,34.366,51.827,37.96,47.035,37.96h-5.51A8.589,8.589,0,0,0,32.9,46.584V288.078a8.589,8.589,0,0,0,8.625,8.625H570.271a8.589,8.589,0,0,0,8.625-8.625V46.584a8.589,8.589,0,0,0-8.625-8.625Z" transform="translate(-24.515 5.164)"/><text class="p" transform="translate(53.108 31.274)"><tspan x="0" y="0">not found</tspan></text><g transform="translate(179.563 18.328)"><path class="q" d="M106.486,19.749a1.158,1.158,0,0,1-1.677,0h0a1.158,1.158,0,0,1,0-1.677L114.872,8.009a1.158,1.158,0,0,1,1.677,0h0a1.158,1.158,0,0,1,0,1.677Z" transform="translate(-104.21 -7.65)"/><path class="q" d="M104.709,9.686a1.158,1.158,0,0,1,0-1.677h0a1.158,1.158,0,0,1,1.677,0l10.062,10.062a1.158,1.158,0,0,1,0,1.677h0a1.158,1.158,0,0,1-1.677,0Z" transform="translate(-104.35 -7.65)"/></g><g transform="translate(525.991 18.328)"><path class="q" d="M251.086,19.749a1.158,1.158,0,0,1-1.677,0h0a1.158,1.158,0,0,1,0-1.677L259.472,8.009a1.158,1.158,0,0,1,1.677,0h0a1.158,1.158,0,0,1,0,1.677Z" transform="translate(-248.81 -7.65)"/><path class="q" d="M249.309,9.686a1.158,1.158,0,0,1,0-1.677h0a1.158,1.158,0,0,1,1.677,0l10.062,10.062a1.158,1.158,0,0,1,0,1.677h0a1.158,1.158,0,0,1-1.677,0Z" transform="translate(-248.95 -7.65)"/></g><path class="r" d="M499.892,59.1a2.768,2.768,0,0,1-2.875,2.875H56.675A2.768,2.768,0,0,1,53.8,59.1V29.875A2.768,2.768,0,0,1,56.675,27H497.018a2.768,2.768,0,0,1,2.875,2.875Z" transform="translate(4.657 37.686)"/><rect class="s" width="10.541" height="10.541" transform="translate(505.508 19.166)"/><line class="s" x1="10.541" transform="translate(483.706 29.708)"/><g transform="translate(183.066 134.432)"><g transform="translate(0.091)"><path class="q" d="M107.647,67.1a6.664,6.664,0,0,1,0-9.1h0c2.635-2.4,6.708-2.635,9.1,0l34.5,34.5a6.435,6.435,0,0,1,0,9.1h0a6.664,6.664,0,0,1-9.1,0Z" transform="translate(-105.85 -56.112)"/></g><path class="q" d="M151.3,67.1a6.664,6.664,0,0,0,0-9.1h0c-2.635-2.4-6.708-2.635-9.1,0L107.7,92.5a6.435,6.435,0,0,0,0,9.1h0a6.664,6.664,0,0,0,9.1,0Z" transform="translate(-105.812 -56.112)"/><g transform="translate(149.257)"><g transform="translate(0.091)"><path class="q" d="M169.947,67.1a6.664,6.664,0,0,1,0-9.1h0c2.635-2.4,6.708-2.635,9.1,0l34.5,34.5a6.435,6.435,0,0,1,0,9.1h0a6.664,6.664,0,0,1-9.1,0Z" transform="translate(-168.15 -56.112)"/></g><path class="q" d="M213.6,67.1a6.23,6.23,0,0,0,0-9.1h0c-2.635-2.4-6.708-2.635-9.1,0L170,92.5a6.435,6.435,0,0,0,0,9.1h0a6.664,6.664,0,0,0,9.1,0Z" transform="translate(-168.112 -56.112)"/></g><g transform="translate(67.532 66.334)"><path class="q" d="M189.1,96.737a6.442,6.442,0,0,0,6.469-6.469h0A6.442,6.442,0,0,0,189.1,83.8H140.469A6.442,6.442,0,0,0,134,90.269h0a6.442,6.442,0,0,0,6.469,6.469Z" transform="translate(-134 -83.8)"/></g></g><g transform="translate(516.289 71.154)"><path class="t" d="M268.858,31.377a1.638,1.638,0,0,1-1.677,1.677h-20.6a1.638,1.638,0,0,1-1.677-1.677h0a1.638,1.638,0,0,1,1.677-1.677h20.6a1.638,1.638,0,0,1,1.677,1.677Z" transform="translate(-244.9 -29.7)"/><path class="t" d="M268.858,35.277a1.638,1.638,0,0,1-1.677,1.677h-20.6a1.638,1.638,0,0,1-1.677-1.677h0a1.638,1.638,0,0,1,1.677-1.677h20.6a1.638,1.638,0,0,1,1.677,1.677Z" transform="translate(-244.9 -24.256)"/><path class="t" d="M268.858,39.2a1.638,1.638,0,0,1-1.677,1.677h-20.6A1.638,1.638,0,0,1,244.9,39.2h0a1.638,1.638,0,0,1,1.677-1.677h20.6c.958-.24,1.677.719,1.677,1.677Z" transform="translate(-244.9 -18.835)"/></g><path class="t" d="M67.051,38.383a1.457,1.457,0,0,0-1.917,0L63.7,39.821A12.008,12.008,0,0,0,51.718,28.8a12.218,12.218,0,0,0,0,24.437,1.437,1.437,0,0,0,0-2.875,9.344,9.344,0,1,1,9.344-10.3l-1.677-1.2a1.355,1.355,0,0,0-1.917,1.917l4.073,3.594a1.245,1.245,0,0,0,.958.479h0a1.245,1.245,0,0,0,.958-.479L67.051,40.3A1.449,1.449,0,0,0,67.051,38.383Z" transform="translate(-15.303 40.198)"/></g><g transform="translate(0 235.504)"><path class="u" d="M599.143,386.291a6.664,6.664,0,0,1-6.469,5.51H65.6a6.867,6.867,0,0,1-6.469-5.51L14.575,128.266c-.719-4.073,1.677-7.666,5.031-7.666H638.673c3.594,0,5.75,3.354,5.031,7.666Z" transform="translate(-5.231 -67.174)"/><path class="v" d="M638.678,120.7H19.611c-3.594,0-5.75,3.354-5.031,7.666L22.486,174.6H635.8l7.906-46.238C644.668,124.054,642.272,120.7,638.678,120.7Z" transform="translate(-5.237 -67.035)"/><path class="w" d="M661.052,171.131a6.442,6.442,0,0,1-6.469,6.469H17.069a6.442,6.442,0,0,1-6.469-6.469V104.769A6.442,6.442,0,0,1,17.069,98.3H654.583a6.442,6.442,0,0,1,6.469,6.469Z" transform="translate(-10.6 -98.3)"/><g transform="translate(16.531 8.385)"><path class="x" d="M28.041,159.059a5.317,5.317,0,0,1-5.271,5.271h0a5.317,5.317,0,0,1-5.271-5.271V107.071a5.317,5.317,0,0,1,5.271-5.271h0a5.317,5.317,0,0,1,5.271,5.271Z" transform="translate(-17.5 -101.8)"/><path class="x" d="M42.941,159.059a5.317,5.317,0,0,1-5.271,5.271h0a5.317,5.317,0,0,1-5.271-5.271V107.071a5.317,5.317,0,0,1,5.271-5.271h0a5.317,5.317,0,0,1,5.271,5.271Z" transform="translate(3.297 -101.8)"/><path class="x" d="M57.841,159.059a5.317,5.317,0,0,1-5.271,5.271h0a5.317,5.317,0,0,1-5.271-5.271V107.071a5.317,5.317,0,0,1,5.271-5.271h0a5.317,5.317,0,0,1,5.271,5.271Z" transform="translate(24.094 -101.8)"/><path class="x" d="M72.741,159.059a5.317,5.317,0,0,1-5.271,5.271h0a5.317,5.317,0,0,1-5.271-5.271V107.071a5.317,5.317,0,0,1,5.271-5.271h0a5.317,5.317,0,0,1,5.271,5.271Z" transform="translate(44.891 -101.8)"/><path class="x" d="M87.641,159.059a5.317,5.317,0,0,1-5.271,5.271h0a5.317,5.317,0,0,1-5.271-5.271V107.071a5.317,5.317,0,0,1,5.271-5.271h0a5.317,5.317,0,0,1,5.271,5.271Z" transform="translate(65.688 -101.8)"/><path class="x" d="M102.541,159.059a5.317,5.317,0,0,1-5.271,5.271h0A5.317,5.317,0,0,1,92,159.059V107.071a5.317,5.317,0,0,1,5.271-5.271h0a5.317,5.317,0,0,1,5.271,5.271Z" transform="translate(86.485 -101.8)"/><path class="x" d="M117.441,159.059a5.317,5.317,0,0,1-5.271,5.271h0a5.317,5.317,0,0,1-5.271-5.271V107.071a5.317,5.317,0,0,1,5.271-5.271h0a5.317,5.317,0,0,1,5.271,5.271Z" transform="translate(107.282 -101.8)"/><path class="x" d="M132.341,159.059a5.317,5.317,0,0,1-5.271,5.271h0a5.317,5.317,0,0,1-5.271-5.271V107.071a5.317,5.317,0,0,1,5.271-5.271h0a5.317,5.317,0,0,1,5.271,5.271Z" transform="translate(128.079 -101.8)"/><path class="x" d="M147.241,159.059a5.317,5.317,0,0,1-5.271,5.271h0a5.317,5.317,0,0,1-5.271-5.271V107.071a5.317,5.317,0,0,1,5.271-5.271h0a5.317,5.317,0,0,1,5.271,5.271Z" transform="translate(148.876 -101.8)"/><path class="x" d="M162.141,159.059a5.317,5.317,0,0,1-5.271,5.271h0a5.317,5.317,0,0,1-5.271-5.271V107.071a5.317,5.317,0,0,1,5.271-5.271h0a5.317,5.317,0,0,1,5.271,5.271Z" transform="translate(169.673 -101.8)"/><path class="x" d="M177.041,159.059a5.317,5.317,0,0,1-5.271,5.271h0a5.317,5.317,0,0,1-5.271-5.271V107.071a5.317,5.317,0,0,1,5.271-5.271h0a5.317,5.317,0,0,1,5.271,5.271Z" transform="translate(190.47 -101.8)"/><path class="x" d="M191.941,159.059a5.317,5.317,0,0,1-5.271,5.271h0a5.317,5.317,0,0,1-5.271-5.271V107.071a5.317,5.317,0,0,1,5.271-5.271h0a5.317,5.317,0,0,1,5.271,5.271Z" transform="translate(211.267 -101.8)"/><path class="x" d="M206.841,159.059a5.317,5.317,0,0,1-5.271,5.271h0a5.317,5.317,0,0,1-5.271-5.271V107.071a5.317,5.317,0,0,1,5.271-5.271h0a5.317,5.317,0,0,1,5.271,5.271Z" transform="translate(232.064 -101.8)"/><path class="x" d="M221.741,159.059a5.317,5.317,0,0,1-5.271,5.271h0a5.317,5.317,0,0,1-5.271-5.271V107.071a5.317,5.317,0,0,1,5.271-5.271h0a5.317,5.317,0,0,1,5.271,5.271Z" transform="translate(252.861 -101.8)"/><path class="x" d="M236.641,159.059a5.317,5.317,0,0,1-5.271,5.271h0a5.318,5.318,0,0,1-5.271-5.271V107.071a5.318,5.318,0,0,1,5.271-5.271h0a5.317,5.317,0,0,1,5.271,5.271Z" transform="translate(273.658 -101.8)"/><path class="x" d="M251.541,159.059a5.317,5.317,0,0,1-5.271,5.271h0A5.318,5.318,0,0,1,241,159.059V107.071a5.318,5.318,0,0,1,5.271-5.271h0a5.317,5.317,0,0,1,5.271,5.271Z" transform="translate(294.455 -101.8)"/><path class="x" d="M266.441,159.059a5.317,5.317,0,0,1-5.271,5.271h0a5.317,5.317,0,0,1-5.271-5.271V107.071a5.317,5.317,0,0,1,5.271-5.271h0a5.317,5.317,0,0,1,5.271,5.271Z" transform="translate(315.252 -101.8)"/><path class="x" d="M281.341,159.059a5.318,5.318,0,0,1-5.271,5.271h0a5.317,5.317,0,0,1-5.271-5.271V107.071a5.317,5.317,0,0,1,5.271-5.271h0a5.318,5.318,0,0,1,5.271,5.271Z" transform="translate(336.049 -101.8)"/></g></g></g><rect class="y" width="701.242" height="17.25" transform="translate(609 782.892)"/></g></svg>