<svg xmlns="http://www.w3.org/2000/svg" xmlns:xlink="http://www.w3.org/1999/xlink" viewBox="0 0 106 106"><defs><style>.a{fill:#5e88fc;}.b{fill:#fff;}.c{filter:url(#a);}</style><filter id="a" x="0" y="0" width="106" height="106" filterUnits="userSpaceOnUse"><feOffset dy="3" input="SourceAlpha"/><feGaussianBlur stdDeviation="3" result="b"/><feFlood flood-opacity="0.161"/><feComposite operator="in" in2="b"/><feComposite in="SourceGraphic"/></filter></defs><g transform="translate(-1026 -751)"><g class="c" transform="matrix(1, 0, 0, 1, 1026, 751)"><circle class="a" cx="44" cy="44" r="44" transform="translate(9 6)"/></g><path class="b" d="M127.415,24.211H132.4V44.725a.733.733,0,0,0,.733.733h8.449a.733.733,0,0,0,.733-.733V24.308h5.728a.733.733,0,0,0,.728-.649l.87-7.552a.733.733,0,0,0-.728-.817h-6.6V10.555c0-1.427.768-2.151,2.284-2.151h4.314a.733.733,0,0,0,.733-.733V.739a.733.733,0,0,0-.733-.733h-5.946c-.042,0-.135-.005-.272-.005a11.393,11.393,0,0,0-7.45,2.808,7.812,7.812,0,0,0-2.6,6.945v5.536h-5.231a.733.733,0,0,0-.733.733v7.456A.733.733,0,0,0,127.415,24.211Z" transform="translate(941.318 778.542)"/></g></svg>